<mxfile host="Electron" agent="Mozilla/5.0 (Windows NT 10.0; Win64; x64) AppleWebKit/537.36 (KHTML, like Gecko) draw.io/24.7.17 Chrome/128.0.6613.36 Electron/32.0.1 Safari/537.36" version="24.7.17">
  <diagram name="Page-1" id="pnUKo9rAZJQ2fCg5VlqA">
    <mxGraphModel dx="2790" dy="1407" grid="1" gridSize="10" guides="1" tooltips="1" connect="1" arrows="1" fold="1" page="1" pageScale="1" pageWidth="827" pageHeight="1169" math="0" shadow="0">
      <root>
        <mxCell id="0" />
        <mxCell id="1" parent="0" />
        <mxCell id="BC68Iccfd5lmqxkWgMbt-32" value="" style="rounded=0;whiteSpace=wrap;html=1;" parent="1" vertex="1">
          <mxGeometry x="1720" y="40" width="720" height="960" as="geometry" />
        </mxCell>
        <mxCell id="BC68Iccfd5lmqxkWgMbt-1" value="" style="rounded=0;whiteSpace=wrap;html=1;" parent="1" vertex="1">
          <mxGeometry x="881" y="40" width="720" height="960" as="geometry" />
        </mxCell>
        <mxCell id="MO-Cdh2RZQ4T2ggdlcRj-2" value="" style="rounded=0;whiteSpace=wrap;html=1;" parent="1" vertex="1">
          <mxGeometry x="40" y="40" width="720" height="960" as="geometry" />
        </mxCell>
        <mxCell id="MO-Cdh2RZQ4T2ggdlcRj-38" value="&lt;div style=&quot;text-align: justify;&quot;&gt;&lt;span style=&quot;font-size: 48px; background-color: initial;&quot;&gt;Cours culinaires culturels&lt;/span&gt;&lt;/div&gt;" style="text;html=1;align=left;verticalAlign=middle;whiteSpace=wrap;rounded=0;" parent="1" vertex="1">
          <mxGeometry x="80" y="60" width="550" height="90" as="geometry" />
        </mxCell>
        <mxCell id="MO-Cdh2RZQ4T2ggdlcRj-40" value="&lt;div style=&quot;text-align: justify;&quot;&gt;&lt;span style=&quot;background-color: initial;&quot;&gt;&lt;font style=&quot;font-size: 24px;&quot;&gt;Inscription&lt;/font&gt;&lt;/span&gt;&lt;/div&gt;" style="text;html=1;align=left;verticalAlign=middle;whiteSpace=wrap;rounded=0;" parent="1" vertex="1">
          <mxGeometry x="921" y="150" width="190" height="50" as="geometry" />
        </mxCell>
        <mxCell id="MO-Cdh2RZQ4T2ggdlcRj-3" value="Cours" style="rounded=0;whiteSpace=wrap;html=1;" parent="1" vertex="1">
          <mxGeometry x="80" y="170" width="160" height="40" as="geometry" />
        </mxCell>
        <mxCell id="MO-Cdh2RZQ4T2ggdlcRj-4" value="Lieu" style="rounded=0;whiteSpace=wrap;html=1;" parent="1" vertex="1">
          <mxGeometry x="240" y="170" width="110" height="40" as="geometry" />
        </mxCell>
        <mxCell id="MO-Cdh2RZQ4T2ggdlcRj-5" value="Date" style="rounded=0;whiteSpace=wrap;html=1;" parent="1" vertex="1">
          <mxGeometry x="350" y="170" width="90" height="40" as="geometry" />
        </mxCell>
        <mxCell id="MO-Cdh2RZQ4T2ggdlcRj-6" value="Professeur" style="rounded=0;whiteSpace=wrap;html=1;" parent="1" vertex="1">
          <mxGeometry x="590" y="170" width="130" height="40" as="geometry" />
        </mxCell>
        <mxCell id="MO-Cdh2RZQ4T2ggdlcRj-7" value="" style="rounded=0;whiteSpace=wrap;html=1;" parent="1" vertex="1">
          <mxGeometry x="80" y="210" width="160" height="40" as="geometry" />
        </mxCell>
        <mxCell id="MO-Cdh2RZQ4T2ggdlcRj-8" value="" style="rounded=0;whiteSpace=wrap;html=1;" parent="1" vertex="1">
          <mxGeometry x="240" y="210" width="110" height="40" as="geometry" />
        </mxCell>
        <mxCell id="MO-Cdh2RZQ4T2ggdlcRj-9" value="" style="rounded=0;whiteSpace=wrap;html=1;" parent="1" vertex="1">
          <mxGeometry x="350" y="210" width="90" height="40" as="geometry" />
        </mxCell>
        <mxCell id="MO-Cdh2RZQ4T2ggdlcRj-10" value="" style="rounded=0;whiteSpace=wrap;html=1;" parent="1" vertex="1">
          <mxGeometry x="520" y="210" width="70" height="40" as="geometry" />
        </mxCell>
        <mxCell id="MO-Cdh2RZQ4T2ggdlcRj-41" value="Prix" style="rounded=0;whiteSpace=wrap;html=1;" parent="1" vertex="1">
          <mxGeometry x="520" y="170" width="70" height="40" as="geometry" />
        </mxCell>
        <mxCell id="MO-Cdh2RZQ4T2ggdlcRj-43" value="" style="rounded=0;whiteSpace=wrap;html=1;" parent="1" vertex="1">
          <mxGeometry x="590" y="210" width="130" height="40" as="geometry" />
        </mxCell>
        <mxCell id="MO-Cdh2RZQ4T2ggdlcRj-44" value="Durée" style="rounded=0;whiteSpace=wrap;html=1;" parent="1" vertex="1">
          <mxGeometry x="440" y="170" width="80" height="40" as="geometry" />
        </mxCell>
        <mxCell id="MO-Cdh2RZQ4T2ggdlcRj-45" value="" style="rounded=0;whiteSpace=wrap;html=1;" parent="1" vertex="1">
          <mxGeometry x="440" y="210" width="80" height="40" as="geometry" />
        </mxCell>
        <mxCell id="MO-Cdh2RZQ4T2ggdlcRj-46" value="" style="rounded=0;whiteSpace=wrap;html=1;" parent="1" vertex="1">
          <mxGeometry x="80" y="250" width="160" height="40" as="geometry" />
        </mxCell>
        <mxCell id="MO-Cdh2RZQ4T2ggdlcRj-47" value="" style="rounded=0;whiteSpace=wrap;html=1;" parent="1" vertex="1">
          <mxGeometry x="240" y="250" width="110" height="40" as="geometry" />
        </mxCell>
        <mxCell id="MO-Cdh2RZQ4T2ggdlcRj-48" value="" style="rounded=0;whiteSpace=wrap;html=1;" parent="1" vertex="1">
          <mxGeometry x="350" y="250" width="90" height="40" as="geometry" />
        </mxCell>
        <mxCell id="MO-Cdh2RZQ4T2ggdlcRj-49" value="" style="rounded=0;whiteSpace=wrap;html=1;" parent="1" vertex="1">
          <mxGeometry x="520" y="250" width="70" height="40" as="geometry" />
        </mxCell>
        <mxCell id="MO-Cdh2RZQ4T2ggdlcRj-50" value="" style="rounded=0;whiteSpace=wrap;html=1;" parent="1" vertex="1">
          <mxGeometry x="590" y="250" width="130" height="40" as="geometry" />
        </mxCell>
        <mxCell id="MO-Cdh2RZQ4T2ggdlcRj-51" value="" style="rounded=0;whiteSpace=wrap;html=1;" parent="1" vertex="1">
          <mxGeometry x="440" y="250" width="80" height="40" as="geometry" />
        </mxCell>
        <mxCell id="MO-Cdh2RZQ4T2ggdlcRj-52" value="" style="rounded=0;whiteSpace=wrap;html=1;" parent="1" vertex="1">
          <mxGeometry x="80" y="290" width="160" height="40" as="geometry" />
        </mxCell>
        <mxCell id="MO-Cdh2RZQ4T2ggdlcRj-53" value="" style="rounded=0;whiteSpace=wrap;html=1;" parent="1" vertex="1">
          <mxGeometry x="240" y="290" width="110" height="40" as="geometry" />
        </mxCell>
        <mxCell id="MO-Cdh2RZQ4T2ggdlcRj-54" value="" style="rounded=0;whiteSpace=wrap;html=1;" parent="1" vertex="1">
          <mxGeometry x="350" y="290" width="90" height="40" as="geometry" />
        </mxCell>
        <mxCell id="MO-Cdh2RZQ4T2ggdlcRj-55" value="" style="rounded=0;whiteSpace=wrap;html=1;" parent="1" vertex="1">
          <mxGeometry x="520" y="290" width="70" height="40" as="geometry" />
        </mxCell>
        <mxCell id="MO-Cdh2RZQ4T2ggdlcRj-56" value="" style="rounded=0;whiteSpace=wrap;html=1;" parent="1" vertex="1">
          <mxGeometry x="590" y="290" width="130" height="40" as="geometry" />
        </mxCell>
        <mxCell id="MO-Cdh2RZQ4T2ggdlcRj-57" value="" style="rounded=0;whiteSpace=wrap;html=1;" parent="1" vertex="1">
          <mxGeometry x="440" y="290" width="80" height="40" as="geometry" />
        </mxCell>
        <mxCell id="BC68Iccfd5lmqxkWgMbt-2" value="&lt;div style=&quot;text-align: justify;&quot;&gt;&lt;span style=&quot;font-size: 48px; background-color: initial;&quot;&gt;Cours culinaires culturels&lt;/span&gt;&lt;/div&gt;" style="text;html=1;align=left;verticalAlign=middle;whiteSpace=wrap;rounded=0;" parent="1" vertex="1">
          <mxGeometry x="920" y="60" width="550" height="90" as="geometry" />
        </mxCell>
        <mxCell id="BC68Iccfd5lmqxkWgMbt-3" value="" style="group" parent="1" vertex="1" connectable="0">
          <mxGeometry x="921" y="220" width="640" height="40" as="geometry" />
        </mxCell>
        <mxCell id="BC68Iccfd5lmqxkWgMbt-4" value="" style="rounded=0;whiteSpace=wrap;html=1;" parent="BC68Iccfd5lmqxkWgMbt-3" vertex="1">
          <mxGeometry width="640" height="40" as="geometry" />
        </mxCell>
        <mxCell id="BC68Iccfd5lmqxkWgMbt-5" value="" style="rounded=0;whiteSpace=wrap;html=1;" parent="BC68Iccfd5lmqxkWgMbt-3" vertex="1">
          <mxGeometry width="40" height="40" as="geometry" />
        </mxCell>
        <mxCell id="BC68Iccfd5lmqxkWgMbt-6" value="" style="triangle;whiteSpace=wrap;html=1;rotation=90;" parent="BC68Iccfd5lmqxkWgMbt-3" vertex="1">
          <mxGeometry x="10" y="7.5" width="20" height="25" as="geometry" />
        </mxCell>
        <mxCell id="BC68Iccfd5lmqxkWgMbt-7" value="Lieu" style="rounded=0;whiteSpace=wrap;html=1;" parent="1" vertex="1">
          <mxGeometry x="921" y="290" width="110" height="40" as="geometry" />
        </mxCell>
        <mxCell id="BC68Iccfd5lmqxkWgMbt-8" value="Date" style="rounded=0;whiteSpace=wrap;html=1;" parent="1" vertex="1">
          <mxGeometry x="1031" y="290" width="90" height="40" as="geometry" />
        </mxCell>
        <mxCell id="BC68Iccfd5lmqxkWgMbt-9" value="" style="rounded=0;whiteSpace=wrap;html=1;" parent="1" vertex="1">
          <mxGeometry x="921" y="330" width="110" height="40" as="geometry" />
        </mxCell>
        <mxCell id="BC68Iccfd5lmqxkWgMbt-10" value="" style="rounded=0;whiteSpace=wrap;html=1;" parent="1" vertex="1">
          <mxGeometry x="1031" y="330" width="90" height="40" as="geometry" />
        </mxCell>
        <mxCell id="BC68Iccfd5lmqxkWgMbt-11" value="" style="rounded=0;whiteSpace=wrap;html=1;" parent="1" vertex="1">
          <mxGeometry x="1201" y="330" width="70" height="40" as="geometry" />
        </mxCell>
        <mxCell id="BC68Iccfd5lmqxkWgMbt-12" value="Prix" style="rounded=0;whiteSpace=wrap;html=1;" parent="1" vertex="1">
          <mxGeometry x="1201" y="290" width="70" height="40" as="geometry" />
        </mxCell>
        <mxCell id="BC68Iccfd5lmqxkWgMbt-13" value="Durée" style="rounded=0;whiteSpace=wrap;html=1;" parent="1" vertex="1">
          <mxGeometry x="1121" y="290" width="80" height="40" as="geometry" />
        </mxCell>
        <mxCell id="BC68Iccfd5lmqxkWgMbt-14" value="" style="rounded=0;whiteSpace=wrap;html=1;" parent="1" vertex="1">
          <mxGeometry x="1121" y="330" width="80" height="40" as="geometry" />
        </mxCell>
        <mxCell id="MO-Cdh2RZQ4T2ggdlcRj-26" value="" style="rounded=0;whiteSpace=wrap;html=1;" parent="1" vertex="1">
          <mxGeometry x="1110" y="490" width="450" height="40" as="geometry" />
        </mxCell>
        <mxCell id="MO-Cdh2RZQ4T2ggdlcRj-27" value="Nom" style="rounded=0;whiteSpace=wrap;html=1;" parent="1" vertex="1">
          <mxGeometry x="920" y="490" width="160" height="40" as="geometry" />
        </mxCell>
        <mxCell id="MO-Cdh2RZQ4T2ggdlcRj-28" value="" style="rounded=0;whiteSpace=wrap;html=1;" parent="1" vertex="1">
          <mxGeometry x="1110" y="550" width="450" height="40" as="geometry" />
        </mxCell>
        <mxCell id="MO-Cdh2RZQ4T2ggdlcRj-29" value="Prenom" style="rounded=0;whiteSpace=wrap;html=1;" parent="1" vertex="1">
          <mxGeometry x="920" y="550" width="160" height="40" as="geometry" />
        </mxCell>
        <mxCell id="MO-Cdh2RZQ4T2ggdlcRj-30" value="" style="rounded=0;whiteSpace=wrap;html=1;" parent="1" vertex="1">
          <mxGeometry x="1110" y="610" width="450" height="40" as="geometry" />
        </mxCell>
        <mxCell id="MO-Cdh2RZQ4T2ggdlcRj-31" value="Mail" style="rounded=0;whiteSpace=wrap;html=1;" parent="1" vertex="1">
          <mxGeometry x="920" y="610" width="160" height="40" as="geometry" />
        </mxCell>
        <mxCell id="MO-Cdh2RZQ4T2ggdlcRj-32" value="" style="rounded=0;whiteSpace=wrap;html=1;" parent="1" vertex="1">
          <mxGeometry x="1110" y="670" width="450" height="40" as="geometry" />
        </mxCell>
        <mxCell id="MO-Cdh2RZQ4T2ggdlcRj-33" value="Téléphone" style="rounded=0;whiteSpace=wrap;html=1;" parent="1" vertex="1">
          <mxGeometry x="920" y="670" width="160" height="40" as="geometry" />
        </mxCell>
        <mxCell id="MO-Cdh2RZQ4T2ggdlcRj-34" value="Valider" style="rounded=0;whiteSpace=wrap;html=1;" parent="1" vertex="1">
          <mxGeometry x="1419" y="910" width="140" height="40" as="geometry" />
        </mxCell>
        <mxCell id="BC68Iccfd5lmqxkWgMbt-16" value="" style="rounded=0;whiteSpace=wrap;html=1;align=left;" parent="1" vertex="1">
          <mxGeometry x="920" y="730" width="639" height="160" as="geometry" />
        </mxCell>
        <mxCell id="BC68Iccfd5lmqxkWgMbt-17" value="Ajout (500 caractères)" style="text;html=1;align=center;verticalAlign=middle;whiteSpace=wrap;rounded=0;" parent="1" vertex="1">
          <mxGeometry x="920" y="730" width="150" height="40" as="geometry" />
        </mxCell>
        <mxCell id="BC68Iccfd5lmqxkWgMbt-18" value="(nom et prénom)" style="rounded=0;whiteSpace=wrap;html=1;" parent="1" vertex="1">
          <mxGeometry x="1870" y="220" width="520" height="40" as="geometry" />
        </mxCell>
        <mxCell id="BC68Iccfd5lmqxkWgMbt-19" value="&lt;div style=&quot;text-align: justify;&quot;&gt;&lt;span style=&quot;background-color: initial;&quot;&gt;&lt;font style=&quot;font-size: 24px;&quot;&gt;Professeur&lt;/font&gt;&lt;/span&gt;&lt;/div&gt;" style="text;html=1;align=left;verticalAlign=middle;whiteSpace=wrap;rounded=0;" parent="1" vertex="1">
          <mxGeometry x="1763" y="160" width="190" height="50" as="geometry" />
        </mxCell>
        <mxCell id="BC68Iccfd5lmqxkWgMbt-20" value="(Mail)" style="rounded=0;whiteSpace=wrap;html=1;" parent="1" vertex="1">
          <mxGeometry x="1870" y="260" width="520" height="40" as="geometry" />
        </mxCell>
        <mxCell id="BC68Iccfd5lmqxkWgMbt-21" value="(Téléphone)" style="rounded=0;whiteSpace=wrap;html=1;" parent="1" vertex="1">
          <mxGeometry x="1870" y="300" width="520" height="40" as="geometry" />
        </mxCell>
        <mxCell id="BC68Iccfd5lmqxkWgMbt-22" value="" style="whiteSpace=wrap;html=1;aspect=fixed;" parent="1" vertex="1">
          <mxGeometry x="1875" y="370" width="410" height="410" as="geometry" />
        </mxCell>
        <mxCell id="BC68Iccfd5lmqxkWgMbt-23" value="&lt;div style=&quot;text-align: justify;&quot;&gt;&lt;span style=&quot;background-color: initial;&quot;&gt;&lt;font style=&quot;font-size: 24px;&quot;&gt;Participants&lt;/font&gt;&lt;/span&gt;&lt;/div&gt;" style="text;html=1;align=left;verticalAlign=middle;whiteSpace=wrap;rounded=0;" parent="1" vertex="1">
          <mxGeometry x="80" y="360" width="190" height="50" as="geometry" />
        </mxCell>
        <mxCell id="BC68Iccfd5lmqxkWgMbt-24" value="Nom, prénom du participant" style="rounded=0;whiteSpace=wrap;html=1;" parent="1" vertex="1">
          <mxGeometry x="80" y="410" width="640" height="40" as="geometry" />
        </mxCell>
        <mxCell id="BC68Iccfd5lmqxkWgMbt-25" value="" style="rounded=0;whiteSpace=wrap;html=1;" parent="1" vertex="1">
          <mxGeometry x="80" y="450" width="640" height="40" as="geometry" />
        </mxCell>
        <mxCell id="BC68Iccfd5lmqxkWgMbt-26" value="" style="rounded=0;whiteSpace=wrap;html=1;" parent="1" vertex="1">
          <mxGeometry x="80" y="490" width="640" height="40" as="geometry" />
        </mxCell>
        <mxCell id="BC68Iccfd5lmqxkWgMbt-27" value="" style="rounded=0;whiteSpace=wrap;html=1;" parent="1" vertex="1">
          <mxGeometry x="80" y="530" width="640" height="40" as="geometry" />
        </mxCell>
        <mxCell id="BC68Iccfd5lmqxkWgMbt-28" value="" style="rounded=0;whiteSpace=wrap;html=1;" parent="1" vertex="1">
          <mxGeometry x="80" y="570" width="640" height="40" as="geometry" />
        </mxCell>
        <mxCell id="BC68Iccfd5lmqxkWgMbt-29" value="" style="rounded=0;whiteSpace=wrap;html=1;" parent="1" vertex="1">
          <mxGeometry x="80" y="610" width="640" height="40" as="geometry" />
        </mxCell>
        <mxCell id="BC68Iccfd5lmqxkWgMbt-30" value="Inscription" style="rounded=0;whiteSpace=wrap;html=1;" parent="1" vertex="1">
          <mxGeometry x="580" y="670" width="140" height="40" as="geometry" />
        </mxCell>
        <mxCell id="BC68Iccfd5lmqxkWgMbt-31" value="&lt;div style=&quot;&quot;&gt;&lt;font style=&quot;font-size: 14px;&quot;&gt;Note : Il est possible de cliquer sur un cours pour afficher les détails (professeur, participants) mais aussi de cliquer sur les critères pour trier les cours selon la date, le lieu, le professeur, etc.&lt;/font&gt;&lt;/div&gt;" style="rounded=0;whiteSpace=wrap;html=1;align=left;" parent="1" vertex="1">
          <mxGeometry x="40" y="1020" width="720" height="140" as="geometry" />
        </mxCell>
        <mxCell id="BC68Iccfd5lmqxkWgMbt-33" value="&lt;div style=&quot;text-align: justify;&quot;&gt;&lt;span style=&quot;font-size: 48px; background-color: initial;&quot;&gt;Cours culinaires culturels&lt;/span&gt;&lt;/div&gt;" style="text;html=1;align=left;verticalAlign=middle;whiteSpace=wrap;rounded=0;" parent="1" vertex="1">
          <mxGeometry x="1760" y="60" width="550" height="90" as="geometry" />
        </mxCell>
        <mxCell id="BC68Iccfd5lmqxkWgMbt-34" value="Nom" style="rounded=0;whiteSpace=wrap;html=1;" parent="1" vertex="1">
          <mxGeometry x="1760" y="220" width="110" height="40" as="geometry" />
        </mxCell>
        <mxCell id="BC68Iccfd5lmqxkWgMbt-35" value="Mail" style="rounded=0;whiteSpace=wrap;html=1;" parent="1" vertex="1">
          <mxGeometry x="1760" y="260" width="110" height="40" as="geometry" />
        </mxCell>
        <mxCell id="BC68Iccfd5lmqxkWgMbt-36" value="Téléphone" style="rounded=0;whiteSpace=wrap;html=1;" parent="1" vertex="1">
          <mxGeometry x="1760" y="300" width="110" height="40" as="geometry" />
        </mxCell>
        <mxCell id="BC68Iccfd5lmqxkWgMbt-37" value="(Note)" style="rounded=0;whiteSpace=wrap;html=1;" parent="1" vertex="1">
          <mxGeometry x="1750" y="810" width="660" height="170" as="geometry" />
        </mxCell>
        <mxCell id="BC68Iccfd5lmqxkWgMbt-38" value="" style="group" parent="1" vertex="1" connectable="0">
          <mxGeometry x="920" y="420" width="640" height="40" as="geometry" />
        </mxCell>
        <mxCell id="BC68Iccfd5lmqxkWgMbt-39" value="Participant déjà existant" style="rounded=0;whiteSpace=wrap;html=1;" parent="BC68Iccfd5lmqxkWgMbt-38" vertex="1">
          <mxGeometry width="640" height="40" as="geometry" />
        </mxCell>
        <mxCell id="BC68Iccfd5lmqxkWgMbt-40" value="" style="rounded=0;whiteSpace=wrap;html=1;" parent="BC68Iccfd5lmqxkWgMbt-38" vertex="1">
          <mxGeometry width="40" height="40" as="geometry" />
        </mxCell>
        <mxCell id="BC68Iccfd5lmqxkWgMbt-41" value="" style="triangle;whiteSpace=wrap;html=1;rotation=90;" parent="BC68Iccfd5lmqxkWgMbt-38" vertex="1">
          <mxGeometry x="10" y="7.5" width="20" height="25" as="geometry" />
        </mxCell>
        <mxCell id="G2Jh9sJCVDwXWI3AoTpV-1" value="&lt;div style=&quot;&quot;&gt;&lt;font style=&quot;font-size: 14px;&quot;&gt;Note : Si un participant déjà existant est selectionné, les entrée de création se remplissent automatiquement et deviennent grisées.&lt;/font&gt;&lt;/div&gt;" style="rounded=0;whiteSpace=wrap;html=1;align=left;" vertex="1" parent="1">
          <mxGeometry x="881" y="1020" width="720" height="140" as="geometry" />
        </mxCell>
      </root>
    </mxGraphModel>
  </diagram>
</mxfile>
